<svg xmlns="http://www.w3.org/2000/svg" xmlns:xlink="http://www.w3.org/1999/xlink" width="1100" zoomAndPan="magnify" viewBox="0 0 824.88 824.999997" height="1100" preserveAspectRatio="xMidYMid meet" version="1.0"><defs><g/><clipPath id="f977121adf"><path d="M 216 0.0585938 L 611 0.0585938 L 611 773 L 216 773 Z M 216 0.0585938 " clip-rule="nonzero"/></clipPath><clipPath id="2c92996f96"><rect x="0" width="395" y="0" height="773"/></clipPath><clipPath id="3aedf2faf1"><path d="M 112.054688 1.8125 L 295.949219 1.8125 L 295.949219 140.636719 L 112.054688 140.636719 Z M 112.054688 1.8125 " clip-rule="nonzero"/></clipPath><clipPath id="859da96d55"><path d="M 0.3125 41.570312 L 138.421875 41.570312 L 138.421875 100.679688 L 0.3125 100.679688 Z M 0.3125 41.570312 " clip-rule="nonzero"/></clipPath><clipPath id="f2d3509a7d"><path d="M 0.3125 0.570312 L 138.421875 0.570312 L 138.421875 59.679688 L 0.3125 59.679688 Z M 0.3125 0.570312 " clip-rule="nonzero"/></clipPath><clipPath id="61b5759c27"><rect x="0" width="139" y="0" height="60"/></clipPath><clipPath id="4e7071edaa"><rect x="0" width="297" y="0" height="141"/></clipPath></defs><g clip-path="url(#f977121adf)"><g transform="matrix(1, 0, 0, 1, 216, 0.00000000000008489)"><g clip-path="url(#2c92996f96)"><g fill="#f09f26" fill-opacity="1"><g transform="translate(0.493526, 609.754255)"><g><path d="M 217.40625 -470.0625 C 238.726562 -470.0625 258.09375 -466.796875 275.5 -460.265625 C 292.914062 -453.742188 307.828125 -444.390625 320.234375 -432.203125 C 332.640625 -420.015625 342.210938 -405.539062 348.953125 -388.78125 C 355.703125 -372.03125 359.078125 -353.425781 359.078125 -332.96875 C 359.078125 -312.507812 355.59375 -293.898438 348.625 -277.140625 C 341.664062 -260.390625 331.984375 -245.921875 319.578125 -233.734375 C 307.171875 -221.546875 292.265625 -212.1875 274.859375 -205.65625 C 257.453125 -199.125 238.300781 -195.859375 217.40625 -195.859375 L 117.515625 -195.859375 L 117.515625 0 L 58.765625 0 L 58.765625 -470.0625 Z M 117.515625 -417.84375 L 117.515625 -248.09375 L 217.40625 -248.09375 C 241.78125 -248.09375 261.363281 -255.816406 276.15625 -271.265625 C 290.957031 -286.722656 298.359375 -307.289062 298.359375 -332.96875 C 298.359375 -358.644531 290.957031 -379.207031 276.15625 -394.65625 C 261.363281 -410.113281 241.78125 -417.84375 217.40625 -417.84375 Z M 117.515625 -417.84375 "/></g></g></g></g></g></g><g transform="matrix(1, 0, 0, 1, 277, 632)"><g clip-path="url(#4e7071edaa)"><g clip-path="url(#3aedf2faf1)"><path fill="#f09f26" d="M 295.699219 71.148438 L 203.4375 140.640625 L 203.449219 100.726562 L 112.21875 100.726562 L 112.21875 41.53125 L 203.449219 41.53125 L 203.460938 1.621094 L 295.695312 71.148438 Z M 295.699219 71.148438 " fill-opacity="1" fill-rule="nonzero"/></g><g clip-path="url(#859da96d55)"><g transform="matrix(1, 0, 0, 1, 0, 41)"><g clip-path="url(#61b5759c27)"><g clip-path="url(#f2d3509a7d)"><path fill="#f09f26" d="M 0.3125 0.570312 L 138.390625 0.570312 L 138.390625 59.679688 L 0.3125 59.679688 Z M 0.3125 0.570312 " fill-opacity="1" fill-rule="nonzero"/></g></g></g></g></g></g></svg>